<svg width="262" height="60" viewBox="0 0 262 60" fill="none" xmlns="http://www.w3.org/2000/svg">
<rect width="262" height="60" rx="10" fill="#0C2577"/>
<g clip-path="url(#clip0_2693_1066)">
<path d="M134.041 25.311H132.452C131.602 25.311 130.788 25.7193 130.456 26.5359L126.13 36.5571L125.761 27.2411C125.613 25.7935 124.726 25.311 123.58 25.311H121.288C120.438 25.311 119.624 25.7564 119.292 26.5359L115.003 36.5571H114.93L114.634 27.2411C114.523 26.0905 113.599 25.311 112.453 25.311H110.309L109.68 25.3853C110.531 26.6101 110.863 27.9834 110.604 29.4309L109.2 36.7427L109.865 41.2708C110.05 42.3471 110.937 43.1265 112.046 43.1265H115.41C116.26 43.1265 117.074 42.6069 117.406 41.7904L121.362 32.4372L121.842 41.1594C121.953 42.2729 122.877 43.1265 124.023 43.1265H127.35C128.201 43.1265 128.94 42.6812 129.31 41.9017L136.001 28.3916C136.703 26.907 135.668 25.311 134.041 25.311ZM143.135 25.2739H140.695C139.623 25.2739 138.736 26.0162 138.551 27.0555L136.038 40.5656C135.779 41.9017 136.814 43.1265 138.182 43.1265H140.584C141.656 43.1265 142.544 42.3842 142.729 41.345L145.279 27.8349C145.538 26.4987 144.503 25.2739 143.135 25.2739ZM163.984 26.5359C162.986 25.7193 161.619 25.311 159.918 25.311C157.515 25.311 155.371 26.3874 153.449 28.5401L153.486 28.3545C153.745 27.0184 152.71 25.7564 151.342 25.7564H149.493C148.458 25.7564 147.534 26.5359 147.349 27.5751L145.094 40.5656C144.836 41.9017 145.871 43.1265 147.238 43.1265H149.715C150.75 43.1265 151.674 42.3842 151.859 41.345L153.079 34.2559C153.375 32.8084 153.782 31.8805 154.225 31.4722C154.78 30.9897 155.482 30.7299 156.332 30.7299C157.626 30.7299 158.292 31.398 158.292 32.7713L158.255 33.3651L158.218 33.9219L157.072 40.5656C156.813 41.9017 157.848 43.1265 159.216 43.1265H161.619C162.654 43.1265 163.578 42.3842 163.763 41.345L165.315 32.6971C165.463 31.9547 165.5 31.2495 165.5 30.5815C165.5 28.6886 164.982 27.3524 163.984 26.5359Z" fill="white"/>
<path d="M108.091 27.2039C107.898 26.808 107.629 26.4543 107.299 26.1632C106.969 25.8721 106.586 25.6494 106.17 25.508C105.754 25.3665 105.314 25.3091 104.876 25.339C104.438 25.3689 104.011 25.4855 103.618 25.6822L98.1096 28.1318C97.7831 28.2764 97.4883 28.4847 97.2424 28.7444C96.9965 29.0042 96.8044 29.3104 96.6772 29.6452C96.55 29.9801 96.4902 30.3369 96.5013 30.6951C96.5124 31.0533 96.5942 31.4058 96.7419 31.732C97.3703 33.1053 98.9599 33.7363 100.328 33.1053L101.067 32.7713L99.8471 39.2665C99.7 40.1327 99.9017 41.0222 100.408 41.7391C100.914 42.456 101.683 42.9418 102.546 43.0894C103.408 43.2371 104.294 43.0346 105.008 42.5264C105.722 42.0183 106.206 41.2462 106.353 40.38L108.349 29.4309L108.386 29.1711C108.497 28.4659 108.386 27.7978 108.091 27.2039Z" fill="#288FF2"/>
<path d="M142.512 23.3216C144.288 23.3216 145.728 21.8759 145.728 20.0926C145.728 18.3092 144.288 16.8635 142.512 16.8635C140.736 16.8635 139.296 18.3092 139.296 20.0926C139.296 21.8759 140.736 23.3216 142.512 23.3216Z" fill="#288FF2"/>
</g>
<defs>
<clipPath id="clip0_2693_1066">
<rect width="69" height="26.273" fill="white" transform="translate(96.5 16.8635)"/>
</clipPath>
</defs>
</svg>
