<svg width="51" height="50" viewBox="0 0 51 50" fill="none" xmlns="http://www.w3.org/2000/svg">
<rect x="0.333374" width="50" height="50" rx="25" fill="white"/>
<path d="M28.7234 17.39C28.8491 17.5158 29.0061 17.6059 29.1781 17.6508C29.3502 17.6957 29.5312 17.694 29.7024 17.6457C29.8735 17.5974 30.0287 17.5043 30.152 17.376C30.2752 17.2478 30.362 17.089 30.4034 16.916C30.5072 16.4839 30.7243 16.0873 31.0323 15.767C31.3404 15.4467 31.7282 15.2143 32.156 15.0937C32.5837 14.9732 33.0358 14.9688 33.4658 15.0811C33.8958 15.1933 34.2881 15.4182 34.6023 15.7325C34.9164 16.0468 35.1412 16.4391 35.2533 16.8691C35.3654 17.2992 35.3609 17.7513 35.2402 18.179C35.1195 18.6067 34.887 18.9945 34.5666 19.3024C34.2462 19.6104 33.8495 19.8273 33.4174 19.931C33.2444 19.9724 33.0856 20.0592 32.9573 20.1824C32.8291 20.3056 32.736 20.4608 32.6877 20.632C32.6394 20.8032 32.6376 20.9841 32.6826 21.1562C32.7275 21.3283 32.8175 21.4853 32.9434 21.611L34.6264 23.293C34.8505 23.5172 35.0284 23.7833 35.1497 24.0762C35.271 24.3691 35.3334 24.683 35.3334 25C35.3334 25.317 35.271 25.6309 35.1497 25.9238C35.0284 26.2167 34.8505 26.4828 34.6264 26.707L32.9434 28.39C32.8177 28.5158 32.6607 28.6059 32.4886 28.6508C32.3165 28.6957 32.1355 28.694 31.9644 28.6457C31.7932 28.5974 31.638 28.5043 31.5148 28.376C31.3915 28.2478 31.3048 28.089 31.2634 27.916C31.1596 27.4839 30.9424 27.0873 30.6344 26.767C30.3263 26.4467 29.9385 26.2143 29.5107 26.0937C29.083 25.9732 28.6309 25.9688 28.2009 26.0811C27.7709 26.1933 27.3786 26.4182 27.0645 26.7325C26.7503 27.0468 26.5255 27.4391 26.4134 27.8691C26.3013 28.2992 26.3058 28.7513 26.4265 29.179C26.5472 29.6067 26.7797 29.9945 27.1001 30.3024C27.4205 30.6104 27.8172 30.8273 28.2494 30.931C28.4223 30.9724 28.5811 31.0592 28.7094 31.1824C28.8377 31.3056 28.9307 31.4608 28.979 31.632C29.0273 31.8032 29.0291 31.9841 28.9842 32.1562C28.9392 32.3283 28.8492 32.4853 28.7234 32.611L27.0404 34.293C26.8162 34.5172 26.5501 34.695 26.2572 34.8163C25.9643 34.9376 25.6504 35.0001 25.3334 35.0001C25.0163 35.0001 24.7024 34.9376 24.4095 34.8163C24.1166 34.695 23.8505 34.5172 23.6264 34.293L21.9434 32.61C21.8177 32.4842 21.6607 32.3941 21.4886 32.3492C21.3165 32.3043 21.1355 32.306 20.9644 32.3543C20.7932 32.4026 20.638 32.4957 20.5148 32.624C20.3915 32.7522 20.3048 32.911 20.2634 33.084C20.1596 33.5161 19.9424 33.9127 19.6344 34.233C19.3263 34.5533 18.9385 34.7857 18.5107 34.9063C18.083 35.0268 17.6309 35.0312 17.2009 34.9189C16.7709 34.8067 16.3786 34.5818 16.0645 34.2675C15.7503 33.9532 15.5255 33.5609 15.4134 33.1308C15.3013 32.7008 15.3058 32.2487 15.4265 31.821C15.5472 31.3933 15.7797 31.0055 16.1001 30.6976C16.4205 30.3896 16.8172 30.1727 17.2494 30.069C17.4223 30.0276 17.5811 29.9408 17.7094 29.8176C17.8377 29.6944 17.9307 29.5392 17.979 29.368C18.0273 29.1968 18.0291 29.0159 17.9842 28.8438C17.9392 28.6717 17.8492 28.5147 17.7234 28.389L16.0404 26.707C15.8162 26.4828 15.6384 26.2167 15.517 25.9238C15.3957 25.6309 15.3333 25.317 15.3333 25C15.3333 24.683 15.3957 24.3691 15.517 24.0762C15.6384 23.7833 15.8162 23.5172 16.0404 23.293L17.7234 21.61C17.8491 21.4842 18.006 21.3941 18.1781 21.3492C18.3502 21.3043 18.5312 21.306 18.7024 21.3543C18.8735 21.4026 19.0287 21.4957 19.152 21.624C19.2752 21.7522 19.362 21.911 19.4034 22.084C19.5072 22.5161 19.7243 22.9127 20.0323 23.233C20.3404 23.5533 20.7282 23.7857 21.156 23.9063C21.5837 24.0268 22.0358 24.0312 22.4658 23.9189C22.8958 23.8067 23.2881 23.5818 23.6023 23.2675C23.9164 22.9532 24.1412 22.5609 24.2533 22.1308C24.3654 21.7008 24.3609 21.2487 24.2402 20.821C24.1195 20.3933 23.887 20.0055 23.5666 19.6976C23.2462 19.3896 22.8495 19.1727 22.4174 19.069C22.2444 19.0276 22.0856 18.9408 21.9573 18.8176C21.8291 18.6944 21.736 18.5392 21.6877 18.368C21.6394 18.1968 21.6376 18.0159 21.6826 17.8438C21.7275 17.6717 21.8175 17.5147 21.9434 17.389L23.6264 15.707C23.8505 15.4828 24.1166 15.305 24.4095 15.1837C24.7024 15.0624 25.0163 14.9999 25.3334 14.9999C25.6504 14.9999 25.9643 15.0624 26.2572 15.1837C26.5501 15.305 26.8162 15.4828 27.0404 15.707L28.7234 17.39Z" stroke="#20CF49" stroke-width="2" stroke-linecap="round" stroke-linejoin="round"/>
</svg>
