<svg width="51" height="50" viewBox="0 0 51 50" fill="none" xmlns="http://www.w3.org/2000/svg">
<rect x="0.666626" width="50" height="50" rx="25" fill="white"/>
<path d="M24.6666 28H26.6666C27.1971 28 27.7058 27.7893 28.0808 27.4142C28.4559 27.0391 28.6666 26.5304 28.6666 26C28.6666 25.4696 28.4559 24.9609 28.0808 24.5858C27.7058 24.2107 27.1971 24 26.6666 24H23.6666C23.0666 24 22.5666 24.2 22.2666 24.6L16.6666 30M20.6666 34L22.2666 32.6C22.5666 32.2 23.0666 32 23.6666 32H27.6666C28.7666 32 29.7666 31.6 30.4666 30.8L35.0666 26.4C35.4525 26.0353 35.6777 25.5323 35.6927 25.0016C35.7077 24.4708 35.5113 23.9559 35.1466 23.57C34.782 23.1841 34.2789 22.9589 33.7482 22.9439C33.2175 22.9289 32.7025 23.1253 32.3166 23.49L28.1166 27.39M15.6666 29L21.6666 35M32.5666 22C32.5666 23.6016 31.2683 24.9 29.6666 24.9C28.065 24.9 26.7666 23.6016 26.7666 22C26.7666 20.3984 28.065 19.1 29.6666 19.1C31.2683 19.1 32.5666 20.3984 32.5666 22ZM22.6666 18C22.6666 19.6569 21.3235 21 19.6666 21C18.0098 21 16.6666 19.6569 16.6666 18C16.6666 16.3431 18.0098 15 19.6666 15C21.3235 15 22.6666 16.3431 22.6666 18Z" stroke="#20CF49" stroke-width="2" stroke-linecap="round" stroke-linejoin="round"/>
</svg>
