<svg width="262" height="60" viewBox="0 0 262 60" fill="none" xmlns="http://www.w3.org/2000/svg">
<rect width="262" height="60" rx="10" fill="#1C1C1C"/>
<mask id="mask0_2693_1041" style="mask-type:luminance" maskUnits="userSpaceOnUse" x="96" y="20" width="70" height="20">
<path d="M165.5 20H96.5V40H165.5V20Z" fill="white"/>
</mask>
<g mask="url(#mask0_2693_1041)">
<path d="M115.054 22.2428C115.054 22.8378 114.81 23.407 114.373 23.8289C113.937 24.249 113.343 24.4856 112.726 24.4856C112.108 24.4856 111.516 24.249 111.078 23.8289C110.642 23.4088 110.397 22.8378 110.397 22.2428C110.397 21.6478 110.642 21.0785 111.078 20.6567C111.515 20.2366 112.106 20 112.726 20C113.343 20 113.935 20.2366 114.373 20.6567C114.808 21.0768 115.054 21.6478 115.054 22.2428Z" fill="#FF2400"/>
<path d="M115.055 25.8181H110.397V36.6019H115.055V25.8181Z" fill="#FF2400"/>
<path d="M137.706 30.3758V25.8181H130.292V30.3758H137.706Z" fill="#FF2400"/>
<path d="M102.777 32.4849C106.245 32.4849 109.055 29.6899 109.055 26.2433C109.055 22.7968 106.245 20.0018 102.777 20.0018C99.3101 20.0018 96.5 22.7968 96.5 26.2433V36.602H101.042V32.2431V26.2536C101.042 26.2502 101.042 26.2468 101.042 26.2433C101.042 25.2899 101.82 24.5166 102.779 24.5166C103.738 24.5166 104.516 25.2899 104.516 26.2433C104.516 27.1967 103.738 27.97 102.779 27.97C102.641 27.97 102.507 27.9546 102.379 27.9237V32.4729C102.508 32.4797 102.643 32.4849 102.777 32.4849Z" fill="#FF2400"/>
<path d="M159.223 32.4849C162.69 32.4849 165.5 29.6899 165.5 26.2433C165.5 22.7968 162.69 20.0018 159.223 20.0018C155.756 20.0018 152.945 22.7968 152.945 26.2433V36.602H157.487V32.4849V26.2433C157.487 25.2899 158.265 24.5166 159.224 24.5166C160.184 24.5166 160.962 25.2899 160.962 26.2433C160.962 27.1967 160.184 27.97 159.224 27.97C159.087 27.97 158.952 27.9546 158.824 27.9237V32.4729C158.956 32.4797 159.088 32.4849 159.223 32.4849Z" fill="#FF2400"/>
<path d="M128.952 26.2416V36.6002H124.41V26.3736C124.41 25.9158 124.227 25.4768 123.901 25.1527C123.575 24.8286 123.133 24.6469 122.672 24.6469C122.212 24.6469 121.77 24.8286 121.444 25.1527C121.118 25.4768 120.935 25.9158 120.935 26.3736C120.935 26.3788 120.935 26.3822 120.935 26.3873V32.2414V36.6002H116.393V26.2416C116.393 22.795 119.203 20 122.671 20C126.14 20 128.952 22.795 128.952 26.2416Z" fill="#FF2400"/>
<path d="M139.048 30.3604V20.223H143.59V24.3589V30.2043C143.59 30.2111 143.59 30.2197 143.59 30.2266C143.59 30.6845 143.773 31.1234 144.099 31.4475C144.425 31.7716 144.867 31.9533 145.328 31.9533C145.788 31.9533 146.23 31.7716 146.556 31.4475C146.882 31.1234 147.065 30.6845 147.065 30.2266V20.223H151.607V30.3604C151.607 33.8069 148.795 36.6019 145.329 36.6019C141.858 36.6019 139.048 33.8069 139.048 30.3604Z" fill="#FF2400"/>
<path d="M96.5 38.3333H165.5V38.5714C165.5 39.3604 164.863 40 164.077 40H97.9227C97.137 40 96.5 39.3604 96.5 38.5714V38.3333Z" fill="#00CFA6"/>
</g>
</svg>
