<svg width="24" height="25" viewBox="0 0 24 25" fill="none" xmlns="http://www.w3.org/2000/svg">
<path d="M12 8.49995V21.4999M12 8.49995C11.6383 7.00935 11.0154 5.73501 10.2127 4.84311C9.41003 3.95121 8.46469 3.48314 7.5 3.49995C6.83696 3.49995 6.20107 3.76334 5.73223 4.23218C5.26339 4.70102 5 5.33691 5 5.99995C5 6.66299 5.26339 7.29887 5.73223 7.76772C6.20107 8.23656 6.83696 8.49995 7.5 8.49995M12 8.49995C12.3617 7.00935 12.9846 5.73501 13.7873 4.84311C14.59 3.95121 15.5353 3.48314 16.5 3.49995C17.163 3.49995 17.7989 3.76334 18.2678 4.23218C18.7366 4.70102 19 5.33691 19 5.99995C19 6.66299 18.7366 7.29887 18.2678 7.76772C17.7989 8.23656 17.163 8.49995 16.5 8.49995M19 12.4999V19.4999C19 20.0304 18.7893 20.5391 18.4142 20.9142C18.0391 21.2892 17.5304 21.4999 17 21.4999H7C6.46957 21.4999 5.96086 21.2892 5.58579 20.9142C5.21071 20.5391 5 20.0304 5 19.4999V12.4999M4 8.49995H20C20.5523 8.49995 21 8.94766 21 9.49995V11.4999C21 12.0522 20.5523 12.4999 20 12.4999H4C3.44772 12.4999 3 12.0522 3 11.4999V9.49995C3 8.94766 3.44772 8.49995 4 8.49995Z" stroke="#20CF49" stroke-width="2" stroke-linecap="round" stroke-linejoin="round"/>
</svg>
