<svg width="20" height="21" viewBox="0 0 20 21" fill="none" xmlns="http://www.w3.org/2000/svg">
<path d="M9.99994 11.3333V18M9.99994 18L6.66661 14.6667M9.99994 18L13.3333 14.6667M3.66078 13.2242C2.98016 12.6288 2.44729 11.8833 2.10425 11.0466C1.7612 10.2099 1.61738 9.30493 1.68413 8.40311C1.75088 7.50129 2.02638 6.62734 2.48887 5.85027C2.95136 5.07321 3.58818 4.4143 4.34903 3.9256C5.10989 3.4369 5.97395 3.13178 6.87297 3.03433C7.77198 2.93689 8.68135 3.04979 9.52924 3.36413C10.3771 3.67846 11.1403 4.18562 11.7586 4.84555C12.3768 5.50547 12.8332 6.3001 13.0916 7.16667H14.5833C15.3933 7.16657 16.1816 7.42878 16.8302 7.91405C17.4789 8.39933 17.9529 9.08159 18.1814 9.85874C18.41 10.6359 18.3807 11.4661 18.098 12.2253C17.8153 12.9844 17.2944 13.6316 16.6133 14.07" stroke="#20CF49" stroke-width="2" stroke-linecap="round" stroke-linejoin="round"/>
</svg>
