<svg width="50" height="50" viewBox="0 0 50 50" fill="none" xmlns="http://www.w3.org/2000/svg">
<rect width="50" height="50" rx="25" fill="white"/>
<path d="M16 24H19C19.5304 24 20.0391 24.2107 20.4142 24.5858C20.7893 24.9609 21 25.4696 21 26V29C21 29.5304 20.7893 30.0391 20.4142 30.4142C20.0391 30.7893 19.5304 31 19 31H18C17.4696 31 16.9609 30.7893 16.5858 30.4142C16.2107 30.0391 16 29.5304 16 29V24ZM16 24C16 22.8181 16.2328 21.6478 16.6851 20.5558C17.1374 19.4639 17.8003 18.4718 18.636 17.636C19.4718 16.8003 20.4639 16.1374 21.5558 15.6851C22.6478 15.2328 23.8181 15 25 15C26.1819 15 27.3522 15.2328 28.4442 15.6851C29.5361 16.1374 30.5282 16.8003 31.364 17.636C32.1997 18.4718 32.8626 19.4639 33.3149 20.5558C33.7672 21.6478 34 22.8181 34 24M34 24V29M34 24H31C30.4696 24 29.9609 24.2107 29.5858 24.5858C29.2107 24.9609 29 25.4696 29 26V29C29 29.5304 29.2107 30.0391 29.5858 30.4142C29.9609 30.7893 30.4696 31 31 31H32C32.5304 31 33.0391 30.7893 33.4142 30.4142C33.7893 30.0391 34 29.5304 34 29M34 29V31C34 32.0609 33.5786 33.0783 32.8284 33.8284C32.0783 34.5786 31.0609 35 30 35H25" stroke="#20CF49" stroke-width="2" stroke-linecap="round" stroke-linejoin="round"/>
</svg>
