<svg width="24" height="24" viewBox="0 0 24 24" fill="none" xmlns="http://www.w3.org/2000/svg">
<path d="M15.39 4.38997C15.5157 4.5158 15.6727 4.60582 15.8448 4.65077C16.0169 4.69571 16.1978 4.69394 16.369 4.64564C16.5402 4.59735 16.6954 4.50427 16.8186 4.37601C16.9418 4.24775 17.0286 4.08894 17.07 3.91597C17.1738 3.48386 17.3909 3.08724 17.699 2.76694C18.007 2.44665 18.3949 2.21425 18.8226 2.09369C19.2503 1.97313 19.7025 1.96876 20.1324 2.08104C20.5624 2.19331 20.9547 2.41817 21.2689 2.73246C21.5831 3.04675 21.8078 3.4391 21.9199 3.86912C22.0321 4.29913 22.0275 4.75127 21.9068 5.17896C21.7861 5.60665 21.5536 5.99443 21.2332 6.30238C20.9128 6.61033 20.5161 6.8273 20.084 6.93097C19.911 6.97236 19.7522 7.05915 19.6239 7.18237C19.4957 7.30559 19.4026 7.46078 19.3543 7.63196C19.306 7.80314 19.3042 7.9841 19.3492 8.15619C19.3941 8.32828 19.4842 8.48526 19.61 8.61097L21.293 10.293C21.5172 10.5171 21.695 10.7833 21.8163 11.0761C21.9376 11.369 22.0001 11.6829 22.0001 12C22.0001 12.317 21.9376 12.6309 21.8163 12.9238C21.695 13.2167 21.5172 13.4828 21.293 13.707L19.61 15.39C19.4843 15.5158 19.3273 15.6058 19.1552 15.6508C18.9831 15.6957 18.8022 15.6939 18.631 15.6456C18.4598 15.5973 18.3046 15.5043 18.1814 15.376C18.0582 15.2477 17.9714 15.0889 17.93 14.916C17.8262 14.4839 17.6091 14.0872 17.301 13.7669C16.993 13.4466 16.6051 13.2142 16.1774 13.0937C15.7496 12.9731 15.2975 12.9688 14.8675 13.081C14.4375 13.1933 14.0453 13.4182 13.7311 13.7325C13.4169 14.0467 13.1922 14.4391 13.08 14.8691C12.9679 15.2991 12.9724 15.7513 13.0931 16.179C13.2138 16.6066 13.4464 16.9944 13.7668 17.3024C14.0872 17.6103 14.4838 17.8273 14.916 17.931C15.089 17.9724 15.2478 18.0591 15.376 18.1824C15.5043 18.3056 15.5974 18.4608 15.6457 18.632C15.694 18.8031 15.6957 18.9841 15.6508 19.1562C15.6058 19.3283 15.5158 19.4853 15.39 19.611L13.707 21.293C13.4828 21.5171 13.2167 21.695 12.9238 21.8163C12.6309 21.9376 12.317 22.0001 12 22.0001C11.683 22.0001 11.369 21.9376 11.0762 21.8163C10.7833 21.695 10.5171 21.5171 10.293 21.293L8.60999 19.61C8.48428 19.4841 8.32729 19.3941 8.15521 19.3492C7.98312 19.3042 7.80216 19.306 7.63098 19.3543C7.4598 19.4026 7.3046 19.4957 7.18138 19.6239C7.05816 19.7522 6.97138 19.911 6.92999 20.084C6.82618 20.5161 6.60907 20.9127 6.30102 21.233C5.99297 21.5533 5.6051 21.7857 5.17737 21.9062C4.74964 22.0268 4.29751 22.0312 3.86753 21.9189C3.43755 21.8066 3.04527 21.5818 2.73109 21.2675C2.4169 20.9532 2.19217 20.5608 2.08004 20.1308C1.96791 19.7008 1.97242 19.2487 2.09313 18.821C2.21383 18.3933 2.44635 18.0055 2.76675 17.6976C3.08715 17.3896 3.48385 17.1726 3.91599 17.069C4.08896 17.0276 4.24777 16.9408 4.37603 16.8176C4.50429 16.6943 4.59737 16.5391 4.64566 16.368C4.69396 16.1968 4.69573 16.0158 4.65078 15.8437C4.60584 15.6717 4.51581 15.5147 4.38999 15.389L2.70699 13.707C2.48281 13.4828 2.30499 13.2167 2.18366 12.9238C2.06234 12.6309 1.9999 12.317 1.9999 12C1.9999 11.6829 2.06234 11.369 2.18366 11.0761C2.30499 10.7833 2.48281 10.5171 2.70699 10.293L4.38999 8.60997C4.51569 8.48414 4.67268 8.39411 4.84476 8.34917C5.01685 8.30423 5.19781 8.30599 5.36899 8.35429C5.54017 8.40259 5.69537 8.49566 5.81859 8.62393C5.94181 8.75219 6.02859 8.91099 6.06999 9.08397C6.17379 9.51607 6.3909 9.91269 6.69895 10.233C7.00701 10.5533 7.39487 10.7857 7.8226 10.9062C8.25033 11.0268 8.70246 11.0312 9.13244 10.9189C9.56242 10.8066 9.9547 10.5818 10.2689 10.2675C10.5831 9.95319 10.8078 9.56083 10.9199 9.13082C11.0321 8.7008 11.0275 8.24867 10.9068 7.82098C10.7861 7.39329 10.5536 7.0055 10.2332 6.69755C9.91282 6.3896 9.51612 6.17263 9.08399 6.06897C8.91101 6.02757 8.75221 5.94079 8.62394 5.81757C8.49568 5.69435 8.40261 5.53915 8.35431 5.36797C8.30601 5.19679 8.30424 5.01583 8.34919 4.84374C8.39413 4.67166 8.48416 4.51467 8.60999 4.38897L10.293 2.70697C10.5171 2.48279 10.7833 2.30497 11.0762 2.18364C11.369 2.06232 11.683 1.99988 12 1.99988C12.317 1.99988 12.6309 2.06232 12.9238 2.18364C13.2167 2.30497 13.4828 2.48279 13.707 2.70697L15.39 4.38997Z" stroke="#20CF49" stroke-width="2" stroke-linecap="round" stroke-linejoin="round"/>
</svg>
