<svg width="50" height="50" viewBox="0 0 50 50" fill="none" xmlns="http://www.w3.org/2000/svg">
<rect width="50" height="50" rx="25" fill="white"/>
<path d="M28.39 17.3901C28.5157 17.5159 28.6727 17.6059 28.8448 17.6509C29.0169 17.6958 29.1978 17.6941 29.369 17.6458C29.5402 17.5975 29.6954 17.5044 29.8186 17.3761C29.9418 17.2479 30.0286 17.0891 30.07 16.9161C30.1738 16.484 30.3909 16.0874 30.699 15.7671C31.007 15.4468 31.3949 15.2144 31.8226 15.0938C32.2503 14.9733 32.7025 14.9689 33.1324 15.0812C33.5624 15.1934 33.9547 15.4183 34.2689 15.7326C34.5831 16.0469 34.8078 16.4392 34.9199 16.8692C35.0321 17.2993 35.0275 17.7514 34.9068 18.1791C34.7861 18.6068 34.5536 18.9946 34.2332 19.3025C33.9128 19.6104 33.5161 19.8274 33.084 19.9311C32.911 19.9725 32.7522 20.0593 32.6239 20.1825C32.4957 20.3057 32.4026 20.4609 32.3543 20.6321C32.306 20.8033 32.3042 20.9842 32.3492 21.1563C32.3941 21.3284 32.4842 21.4854 32.61 21.6111L34.293 23.2931C34.5172 23.5173 34.695 23.7834 34.8163 24.0763C34.9376 24.3691 35.0001 24.6831 35.0001 25.0001C35.0001 25.3171 34.9376 25.631 34.8163 25.9239C34.695 26.2168 34.5172 26.4829 34.293 26.7071L32.61 28.3901C32.4843 28.5159 32.3273 28.6059 32.1552 28.6509C31.9831 28.6958 31.8022 28.6941 31.631 28.6458C31.4598 28.5975 31.3046 28.5044 31.1814 28.3761C31.0582 28.2479 30.9714 28.0891 30.93 27.9161C30.8262 27.484 30.6091 27.0874 30.301 26.7671C29.993 26.4468 29.6051 26.2144 29.1774 26.0938C28.7496 25.9733 28.2975 25.9689 27.8675 26.0812C27.4375 26.1934 27.0453 26.4183 26.7311 26.7326C26.4169 27.0469 26.1922 27.4392 26.08 27.8692C25.9679 28.2993 25.9724 28.7514 26.0931 29.1791C26.2138 29.6068 26.4464 29.9946 26.7668 30.3025C27.0872 30.6104 27.4838 30.8274 27.916 30.9311C28.089 30.9725 28.2478 31.0593 28.376 31.1825C28.5043 31.3057 28.5974 31.4609 28.6457 31.6321C28.694 31.8033 28.6957 31.9842 28.6508 32.1563C28.6058 32.3284 28.5158 32.4854 28.39 32.6111L26.707 34.2931C26.4828 34.5173 26.2167 34.6951 25.9238 34.8164C25.6309 34.9377 25.317 35.0002 25 35.0002C24.683 35.0002 24.369 34.9377 24.0762 34.8164C23.7833 34.6951 23.5171 34.5173 23.293 34.2931L21.61 32.6101C21.4843 32.4843 21.3273 32.3942 21.1552 32.3493C20.9831 32.3043 20.8022 32.3061 20.631 32.3544C20.4598 32.4027 20.3046 32.4958 20.1814 32.624C20.0582 32.7523 19.9714 32.9111 19.93 33.0841C19.8262 33.5162 19.6091 33.9128 19.301 34.2331C18.993 34.5534 18.6051 34.7858 18.1774 34.9064C17.7496 35.0269 17.2975 35.0313 16.8675 34.919C16.4375 34.8067 16.0453 34.5819 15.7311 34.2676C15.4169 33.9533 15.1922 33.561 15.08 33.1309C14.9679 32.7009 14.9724 32.2488 15.0931 31.8211C15.2138 31.3934 15.4464 31.0056 15.7668 30.6977C16.0872 30.3897 16.4838 30.1728 16.916 30.0691C17.089 30.0277 17.2478 29.9409 17.376 29.8177C17.5043 29.6945 17.5974 29.5393 17.6457 29.3681C17.694 29.1969 17.6957 29.016 17.6508 28.8439C17.6058 28.6718 17.5158 28.5148 17.39 28.3891L15.707 26.7071C15.4828 26.4829 15.305 26.2168 15.1837 25.9239C15.0623 25.631 14.9999 25.3171 14.9999 25.0001C14.9999 24.6831 15.0623 24.3691 15.1837 24.0763C15.305 23.7834 15.4828 23.5173 15.707 23.2931L17.39 21.6101C17.5157 21.4843 17.6727 21.3942 17.8448 21.3493C18.0169 21.3043 18.1978 21.3061 18.369 21.3544C18.5402 21.4027 18.6954 21.4958 18.8186 21.624C18.9418 21.7523 19.0286 21.9111 19.07 22.0841C19.1738 22.5162 19.3909 22.9128 19.699 23.2331C20.007 23.5534 20.3949 23.7858 20.8226 23.9064C21.2503 24.0269 21.7025 24.0313 22.1324 23.919C22.5624 23.8067 22.9547 23.5819 23.2689 23.2676C23.5831 22.9533 23.8078 22.561 23.9199 22.1309C24.0321 21.7009 24.0275 21.2488 23.9068 20.8211C23.7861 20.3934 23.5536 20.0056 23.2332 19.6977C22.9128 19.3897 22.5161 19.1727 22.084 19.0691C21.911 19.0277 21.7522 18.9409 21.6239 18.8177C21.4957 18.6945 21.4026 18.5393 21.3543 18.3681C21.306 18.1969 21.3042 18.016 21.3492 17.8439C21.3941 17.6718 21.4842 17.5148 21.61 17.3891L23.293 15.7071C23.5171 15.4829 23.7833 15.3051 24.0762 15.1838C24.369 15.0624 24.683 15 25 15C25.317 15 25.6309 15.0624 25.9238 15.1838C26.2167 15.3051 26.4828 15.4829 26.707 15.7071L28.39 17.3901Z" stroke="#20CF49" stroke-width="2" stroke-linecap="round" stroke-linejoin="round"/>
</svg>
