<svg width="50" height="50" viewBox="0 0 50 50" fill="none" xmlns="http://www.w3.org/2000/svg">
<rect width="50" height="50" rx="25" fill="white"/>
<path d="M17.9999 34.0002H31.9999M24.5619 16.2662C24.6051 16.1878 24.6685 16.1224 24.7456 16.0769C24.8226 16.0313 24.9104 16.0073 24.9999 16.0073C25.0894 16.0073 25.1773 16.0313 25.2543 16.0769C25.3314 16.1224 25.3948 16.1878 25.4379 16.2662L28.3899 21.8702C28.4603 21.9999 28.5586 22.1125 28.6776 22.1998C28.7967 22.2871 28.9336 22.3469 29.0785 22.375C29.2235 22.4031 29.3728 22.3988 29.5159 22.3623C29.6589 22.3259 29.7921 22.2582 29.9059 22.1642L34.1829 18.5002C34.265 18.4334 34.3662 18.3944 34.4719 18.3888C34.5776 18.3832 34.6823 18.4112 34.771 18.4689C34.8598 18.5266 34.9279 18.611 34.9656 18.7099C35.0033 18.8087 35.0087 18.917 34.9809 19.0192L32.1469 29.2652C32.0891 29.4748 31.9645 29.6599 31.7919 29.7924C31.6194 29.9248 31.4084 29.9974 31.1909 29.9992H18.8099C18.5923 29.9977 18.381 29.9252 18.2083 29.7927C18.0356 29.6602 17.9108 29.475 17.8529 29.2652L15.0199 19.0202C14.9922 18.918 14.9976 18.8097 15.0353 18.7109C15.073 18.612 15.1411 18.5276 15.2298 18.4699C15.3186 18.4122 15.4233 18.3842 15.529 18.3898C15.6347 18.3954 15.7358 18.4344 15.8179 18.5012L20.0939 22.1652C20.2077 22.2592 20.3409 22.3269 20.484 22.3633C20.6271 22.3998 20.7764 22.4041 20.9213 22.376C21.0663 22.3479 21.2032 22.2881 21.3222 22.2008C21.4413 22.1135 21.5395 22.0009 21.6099 21.8712L24.5619 16.2662Z" stroke="#20CF49" stroke-width="2" stroke-linecap="round" stroke-linejoin="round"/>
</svg>
