<svg width="24" height="24" viewBox="0 0 24 24" fill="none" xmlns="http://www.w3.org/2000/svg">
<path d="M5.00006 21H19.0001M11.5621 3.26605C11.6052 3.18765 11.6686 3.12228 11.7457 3.07675C11.8227 3.03122 11.9106 3.0072 12.0001 3.0072C12.0895 3.0072 12.1774 3.03122 12.2544 3.07675C12.3315 3.12228 12.3949 3.18765 12.4381 3.26605L15.3901 8.87005C15.4605 8.99981 15.5587 9.11238 15.6778 9.19967C15.7968 9.28695 15.9337 9.3468 16.0787 9.37491C16.2236 9.40301 16.3729 9.39868 16.516 9.36222C16.659 9.32577 16.7923 9.25809 16.9061 9.16405L21.1831 5.50005C21.2652 5.43327 21.3663 5.39426 21.472 5.38865C21.5777 5.38303 21.6824 5.41109 21.7712 5.46879C21.8599 5.52649 21.928 5.61086 21.9657 5.70974C22.0034 5.80862 22.0088 5.91692 21.9811 6.01905L19.1471 16.265C19.0892 16.4747 18.9646 16.6598 18.7921 16.7923C18.6195 16.9247 18.4086 16.9973 18.1911 16.999H5.81006C5.59239 16.9975 5.38117 16.925 5.20845 16.7926C5.03573 16.6601 4.91095 16.4749 4.85306 16.265L2.02006 6.02005C1.99231 5.91792 1.99768 5.80962 2.0354 5.71074C2.07312 5.61186 2.14124 5.52749 2.22996 5.46979C2.31868 5.41209 2.42342 5.38403 2.5291 5.38965C2.63478 5.39526 2.73595 5.43427 2.81806 5.50105L7.09406 9.16505C7.20786 9.25909 7.34107 9.32677 7.48412 9.36322C7.62718 9.39968 7.77653 9.40401 7.92146 9.37591C8.06639 9.3478 8.20329 9.28795 8.32235 9.20066C8.44141 9.11338 8.53966 9.00081 8.61006 8.87105L11.5621 3.26605Z" stroke="#20CF49" stroke-width="2" stroke-linecap="round" stroke-linejoin="round"/>
</svg>
