<svg width="50" height="50" viewBox="0 0 50 50" fill="none" xmlns="http://www.w3.org/2000/svg">
<rect width="50" height="50" rx="25" fill="white"/>
<path d="M30 27V15M22 31.12L23 27H17.17C16.8596 27 16.5533 26.9277 16.2756 26.7889C15.9979 26.65 15.7563 26.4484 15.57 26.2C15.3837 25.9516 15.2578 25.6633 15.2023 25.3578C15.1468 25.0523 15.1631 24.7381 15.25 24.44L17.58 16.44C17.7012 16.0246 17.9539 15.6596 18.3 15.4C18.6462 15.1404 19.0673 15 19.5 15H33C33.5305 15 34.0392 15.2107 34.4143 15.5858C34.7893 15.9609 35 16.4696 35 17V25C35 25.5304 34.7893 26.0391 34.4143 26.4142C34.0392 26.7893 33.5305 27 33 27H30.24C29.868 27.0002 29.5033 27.1042 29.1871 27.3003C28.8709 27.4964 28.6156 27.7768 28.45 28.11L25 35C24.5285 34.9942 24.0643 34.8818 23.6422 34.6714C23.2202 34.461 22.8511 34.1579 22.5626 33.7848C22.2742 33.4117 22.0737 32.9782 21.9763 32.5168C21.8789 32.0554 21.887 31.5779 22 31.12Z" stroke="#FF0000" stroke-width="2" stroke-linecap="round" stroke-linejoin="round"/>
</svg>
