<svg width="50" height="50" viewBox="0 0 50 50" fill="none" xmlns="http://www.w3.org/2000/svg">
<rect width="50" height="50" rx="25" fill="white"/>
<path d="M20 23V35M28 18.88L27 23H32.83C33.1405 23 33.4467 23.0723 33.7244 23.2111C34.0021 23.35 34.2437 23.5516 34.43 23.8C34.6163 24.0484 34.7422 24.3367 34.7977 24.6422C34.8533 24.9477 34.8369 25.2619 34.75 25.56L32.42 33.56C32.2988 33.9754 32.0462 34.3404 31.7 34.6C31.3538 34.8596 30.9327 35 30.5 35H17C16.4696 35 15.9609 34.7893 15.5858 34.4142C15.2107 34.0391 15 33.5304 15 33V25C15 24.4696 15.2107 23.9609 15.5858 23.5858C15.9609 23.2107 16.4696 23 17 23H19.76C20.1321 22.9998 20.4967 22.8958 20.813 22.6997C21.1292 22.5036 21.3844 22.2232 21.55 21.89L25 15C25.4716 15.0058 25.9357 15.1182 26.3578 15.3286C26.7799 15.539 27.1489 15.8421 27.4374 16.2152C27.7259 16.5883 27.9263 17.0218 28.0237 17.4832C28.1212 17.9446 28.113 18.4221 28 18.88Z" stroke="#20CF49" stroke-width="2" stroke-linecap="round" stroke-linejoin="round"/>
</svg>
