<svg width="50" height="50" viewBox="0 0 50 50" fill="none" xmlns="http://www.w3.org/2000/svg">
<rect width="50" height="50" rx="25" fill="white"/>
<path d="M19 22H17.5C16.837 22 16.2011 21.7366 15.7322 21.2678C15.2634 20.7989 15 20.163 15 19.5C15 18.837 15.2634 18.2011 15.7322 17.7322C16.2011 17.2634 16.837 17 17.5 17H19M19 22V15H31V22M19 22C19 23.5913 19.6321 25.1174 20.7574 26.2426C21.8826 27.3679 23.4087 28 25 28C26.5913 28 28.1174 27.3679 29.2426 26.2426C30.3679 25.1174 31 23.5913 31 22M31 22H32.5C33.163 22 33.7989 21.7366 34.2678 21.2678C34.7366 20.7989 35 20.163 35 19.5C35 18.837 34.7366 18.2011 34.2678 17.7322C33.7989 17.2634 33.163 17 32.5 17H31M17 35H33M23 27.66V30C23 30.55 22.53 30.98 22.03 31.21C20.85 31.75 20 33.24 20 35M27 27.66V30C27 30.55 27.47 30.98 27.97 31.21C29.15 31.75 30 33.24 30 35" stroke="#20CF49" stroke-width="2" stroke-linecap="round" stroke-linejoin="round"/>
</svg>
